<?xml version="1.0" standalone="no"?>
<!DOCTYPE svg PUBLIC "-//W3C//DTD SVG 20010904//EN"
 "http://www.w3.org/TR/2001/REC-SVG-20010904/DTD/svg10.dtd">
<svg version="1.0" xmlns="http://www.w3.org/2000/svg"
 width="488.000000pt" height="488.000000pt" viewBox="0 0 488.000000 488.000000"
 preserveAspectRatio="xMidYMid meet">
<metadata>
Created by potrace 1.11, written by Peter Selinger 2001-2013
</metadata>
<g transform="translate(0.000000,488.000000) scale(0.100000,-0.100000)"
fill="#000000" stroke="none">
<path d="M0 2440 l0 -2440 2440 0 2440 0 0 2440 0 2440 -2440 0 -2440 0 0
-2440z m1170 1854 c15 -9 36 -31 46 -48 18 -29 19 -63 24 -512 5 -464 6 -483
25 -504 60 -66 150 -66 210 0 19 21 20 40 25 504 5 449 6 483 24 512 38 64
120 83 184 44 62 -38 62 -41 62 -552 0 -437 1 -465 19 -492 28 -41 70 -66 116
-66 46 0 88 25 116 66 18 27 19 55 19 492 0 511 0 514 62 552 64 39 146 20
184 -44 18 -29 19 -65 22 -696 3 -719 0 -788 -45 -880 -33 -68 -112 -148 -176
-179 l-47 -23 0 -826 c0 -532 -4 -840 -10 -864 -17 -59 -71 -130 -124 -163
l-49 -30 -200 -3 c-170 -3 -207 -1 -245 13 -56 22 -105 65 -140 124 l-27 46
-3 851 -2 852 -54 26 c-69 34 -139 109 -179 194 l-32 67 -3 722 c-3 798 -5
773 60 813 40 24 100 26 138 4z m2678 -4 c66 -41 62 81 62 -1782 0 -1121 -4
-1705 -10 -1730 -17 -59 -71 -130 -124 -163 l-49 -30 -205 -3 c-203 -3 -204
-3 -258 23 -29 14 -69 44 -88 67 -67 77 -66 71 -66 684 l0 553 -251 3 c-236 3
-251 4 -265 23 -12 17 -14 151 -12 940 l3 920 23 65 c49 135 150 264 270 344
149 98 183 104 597 105 324 1 342 0 373 -19z"/>
</g>
</svg>
